<svg xmlns="http://www.w3.org/2000/svg" version="1.1" xmlns:xlink="http://www.w3.org/1999/xlink" xmlns:svgjs="http://svgjs.dev/svgjs" viewBox="0 0 800 800"><defs><linearGradient x1="50%" y1="0%" x2="50%" y2="100%" id="ffflurry-grad" gradientTransform="rotate(270)"><stop stop-color="hsl(238, 82%, 13%)" stop-opacity="1" offset="0%"></stop><stop stop-color="hsl(1.4, 100%, 67%)" stop-opacity="1" offset="45%"></stop><stop stop-color="hsl(167, 52%, 78%)" stop-opacity="1" offset="100%"></stop></linearGradient></defs><rect width="100%" height="100%" fill="hsl(238, 82%, 13%)"></rect><g fill="url(#ffflurry-grad)"><rect width="55" height="3" x="569.5" y="671.5" rx="1.5" transform="rotate(45, 597, 673)" opacity="0.93"></rect><rect width="230" height="3" x="596" y="729.5" rx="1.5" transform="rotate(45, 711, 731)" opacity="0.52"></rect><rect width="220" height="3" x="538" y="532.5" rx="1.5" transform="rotate(45, 648, 534)" opacity="0.08"></rect><rect width="437" height="3" x="17.5" y="45.5" rx="1.5" transform="rotate(45, 236, 47)" opacity="0.33"></rect><rect width="54" height="3" x="241" y="205.5" rx="1.5" transform="rotate(45, 268, 207)" opacity="0.17"></rect><rect width="129" height="3" x="451.5" y="697.5" rx="1.5" transform="rotate(45, 516, 699)" opacity="0.49"></rect><rect width="636" height="3" x="69" y="459.5" rx="1.5" transform="rotate(45, 387, 461)" opacity="0.83"></rect><rect width="161" height="3" x="23.5" y="37.5" rx="1.5" transform="rotate(45, 104, 39)" opacity="0.59"></rect><rect width="338" height="3" x="341" y="140.5" rx="1.5" transform="rotate(45, 510, 142)" opacity="0.85"></rect><rect width="330" height="3" x="-51" y="507.5" rx="1.5" transform="rotate(45, 114, 509)" opacity="0.55"></rect><rect width="346" height="3" x="585" y="768.5" rx="1.5" transform="rotate(45, 758, 770)" opacity="0.59"></rect><rect width="441" height="3" x="-186.5" y="189.5" rx="1.5" transform="rotate(45, 34, 191)" opacity="0.39"></rect><rect width="165" height="3" x="227.5" y="122.5" rx="1.5" transform="rotate(45, 310, 124)" opacity="0.72"></rect><rect width="334" height="3" x="-138" y="34.5" rx="1.5" transform="rotate(45, 29, 36)" opacity="0.47"></rect><rect width="590" height="3" x="86" y="54.5" rx="1.5" transform="rotate(45, 381, 56)" opacity="0.96"></rect><rect width="456" height="3" x="152" y="190.5" rx="1.5" transform="rotate(45, 380, 192)" opacity="0.94"></rect><rect width="133" height="3" x="201.5" y="431.5" rx="1.5" transform="rotate(45, 268, 433)" opacity="0.14"></rect><rect width="314" height="3" x="26" y="241.5" rx="1.5" transform="rotate(45, 183, 243)" opacity="0.39"></rect><rect width="68" height="3" x="114" y="98.5" rx="1.5" transform="rotate(45, 148, 100)" opacity="0.61"></rect><rect width="351" height="3" x="396.5" y="65.5" rx="1.5" transform="rotate(45, 572, 67)" opacity="0.90"></rect><rect width="137" height="3" x="475.5" y="368.5" rx="1.5" transform="rotate(45, 544, 370)" opacity="0.13"></rect><rect width="413" height="3" x="25.5" y="319.5" rx="1.5" transform="rotate(45, 232, 321)" opacity="0.70"></rect><rect width="390" height="3" x="520" y="438.5" rx="1.5" transform="rotate(45, 715, 440)" opacity="0.83"></rect><rect width="501" height="3" x="-64.5" y="501.5" rx="1.5" transform="rotate(45, 186, 503)" opacity="0.67"></rect><rect width="137" height="3" x="677.5" y="596.5" rx="1.5" transform="rotate(45, 746, 598)" opacity="0.32"></rect><rect width="344" height="3" x="445" y="466.5" rx="1.5" transform="rotate(45, 617, 468)" opacity="0.69"></rect><rect width="240" height="3" x="369" y="41.5" rx="1.5" transform="rotate(45, 489, 43)" opacity="0.50"></rect><rect width="607" height="3" x="16.5" y="739.5" rx="1.5" transform="rotate(45, 320, 741)" opacity="0.57"></rect><rect width="315" height="3" x="447.5" y="409.5" rx="1.5" transform="rotate(45, 605, 411)" opacity="0.75"></rect><rect width="416" height="3" x="421" y="135.5" rx="1.5" transform="rotate(45, 629, 137)" opacity="0.46"></rect><rect width="103" height="3" x="530.5" y="207.5" rx="1.5" transform="rotate(45, 582, 209)" opacity="0.71"></rect><rect width="326" height="3" x="600" y="365.5" rx="1.5" transform="rotate(45, 763, 367)" opacity="0.26"></rect><rect width="255" height="3" x="185.5" y="276.5" rx="1.5" transform="rotate(45, 313, 278)" opacity="0.76"></rect><rect width="422" height="3" x="-166" y="113.5" rx="1.5" transform="rotate(45, 45, 115)" opacity="0.35"></rect><rect width="474" height="3" x="215" y="256.5" rx="1.5" transform="rotate(45, 452, 258)" opacity="0.12"></rect><rect width="181" height="3" x="64.5" y="621.5" rx="1.5" transform="rotate(45, 155, 623)" opacity="0.85"></rect><rect width="536" height="3" x="183" y="550.5" rx="1.5" transform="rotate(45, 451, 552)" opacity="0.96"></rect><rect width="340" height="3" x="-66" y="315.5" rx="1.5" transform="rotate(45, 104, 317)" opacity="0.43"></rect><rect width="283" height="3" x="615.5" y="55.5" rx="1.5" transform="rotate(45, 757, 57)" opacity="0.49"></rect><rect width="262" height="3" x="558" y="312.5" rx="1.5" transform="rotate(45, 689, 314)" opacity="0.18"></rect><rect width="450" height="3" x="446" y="203.5" rx="1.5" transform="rotate(45, 671, 205)" opacity="0.11"></rect><rect width="161" height="3" x="579.5" y="720.5" rx="1.5" transform="rotate(45, 660, 722)" opacity="0.98"></rect><rect width="271" height="3" x="405.5" y="505.5" rx="1.5" transform="rotate(45, 541, 507)" opacity="0.40"></rect><rect width="523" height="3" x="-221.5" y="495.5" rx="1.5" transform="rotate(45, 40, 497)" opacity="0.53"></rect><rect width="328" height="3" x="-2" y="393.5" rx="1.5" transform="rotate(45, 162, 395)" opacity="0.71"></rect><rect width="73" height="3" x="414.5" y="349.5" rx="1.5" transform="rotate(45, 451, 351)" opacity="0.12"></rect><rect width="425" height="3" x="116.5" y="528.5" rx="1.5" transform="rotate(45, 329, 530)" opacity="0.42"></rect><rect width="543" height="3" x="-23.5" y="561.5" rx="1.5" transform="rotate(45, 248, 563)" opacity="0.51"></rect><rect width="661" height="3" x="411.5" y="155.5" rx="1.5" transform="rotate(45, 742, 157)" opacity="0.87"></rect><rect width="300" height="3" x="617" y="679.5" rx="1.5" transform="rotate(45, 767, 681)" opacity="0.66"></rect><rect width="332" height="3" x="383" y="595.5" rx="1.5" transform="rotate(45, 549, 597)" opacity="0.90"></rect><rect width="386" height="3" x="466" y="260.5" rx="1.5" transform="rotate(45, 659, 262)" opacity="0.86"></rect><rect width="68" height="3" x="423" y="173.5" rx="1.5" transform="rotate(45, 457, 175)" opacity="0.97"></rect><rect width="212" height="3" x="558" y="371.5" rx="1.5" transform="rotate(45, 664, 373)" opacity="0.95"></rect><rect width="462" height="3" x="-176" y="589.5" rx="1.5" transform="rotate(45, 55, 591)" opacity="0.08"></rect><rect width="170" height="3" x="579" y="46.5" rx="1.5" transform="rotate(45, 664, 48)" opacity="0.71"></rect><rect width="66" height="3" x="75" y="752.5" rx="1.5" transform="rotate(45, 108, 754)" opacity="0.33"></rect><rect width="393" height="3" x="-89.5" y="183.5" rx="1.5" transform="rotate(45, 107, 185)" opacity="0.66"></rect><rect width="193" height="3" x="247.5" y="370.5" rx="1.5" transform="rotate(45, 344, 372)" opacity="0.48"></rect><rect width="128" height="3" x="324" y="295.5" rx="1.5" transform="rotate(45, 388, 297)" opacity="0.22"></rect><rect width="540" height="3" x="-41" y="701.5" rx="1.5" transform="rotate(45, 229, 703)" opacity="0.72"></rect><rect width="406" height="3" x="556" y="255.5" rx="1.5" transform="rotate(45, 759, 257)" opacity="0.36"></rect><rect width="369" height="3" x="-149.5" y="268.5" rx="1.5" transform="rotate(45, 35, 270)" opacity="0.08"></rect><rect width="466" height="3" x="427" y="619.5" rx="1.5" transform="rotate(45, 660, 621)" opacity="0.86"></rect><rect width="46" height="3" x="29" y="419.5" rx="1.5" transform="rotate(45, 52, 421)" opacity="0.44"></rect><rect width="412" height="3" x="-79" y="267.5" rx="1.5" transform="rotate(45, 127, 269)" opacity="0.40"></rect><rect width="415" height="3" x="273.5" y="435.5" rx="1.5" transform="rotate(45, 481, 437)" opacity="0.18"></rect><rect width="432" height="3" x="378" y="301.5" rx="1.5" transform="rotate(45, 594, 303)" opacity="0.64"></rect><rect width="191" height="3" x="427.5" y="268.5" rx="1.5" transform="rotate(45, 523, 270)" opacity="0.14"></rect><rect width="171" height="3" x="-37.5" y="352.5" rx="1.5" transform="rotate(45, 48, 354)" opacity="0.42"></rect><rect width="429" height="3" x="540.5" y="505.5" rx="1.5" transform="rotate(45, 755, 507)" opacity="0.74"></rect><rect width="332" height="3" x="34" y="160.5" rx="1.5" transform="rotate(45, 200, 162)" opacity="0.76"></rect><rect width="115" height="3" x="528.5" y="765.5" rx="1.5" transform="rotate(45, 586, 767)" opacity="0.21"></rect><rect width="266" height="3" x="-93" y="687.5" rx="1.5" transform="rotate(45, 40, 689)" opacity="0.62"></rect><rect width="336" height="3" x="177" y="617.5" rx="1.5" transform="rotate(45, 345, 619)" opacity="0.51"></rect><rect width="343" height="3" x="265.5" y="758.5" rx="1.5" transform="rotate(45, 437, 760)" opacity="0.84"></rect><rect width="85" height="3" x="387.5" y="658.5" rx="1.5" transform="rotate(45, 430, 660)" opacity="0.45"></rect></g></svg>